<svg xmlns="http://www.w3.org/2000/svg" xmlns:xlink="http://www.w3.org/1999/xlink" width="1080" zoomAndPan="magnify" viewBox="0 0 810 809.999993" height="1080" preserveAspectRatio="xMidYMid meet" version="1.0"><defs><clipPath id="905e5f55c6"><path d="M 5.800781 5.800781 L 804.550781 5.800781 L 804.550781 800 L 5.800781 800 Z M 5.800781 5.800781 " clip-rule="nonzero"/></clipPath><clipPath id="f6d34fbd63"><path d="M 241 161 L 584 161 L 584 804.550781 L 241 804.550781 Z M 241 161 " clip-rule="nonzero"/></clipPath></defs><rect x="-81" width="972" fill="#ffffff" y="-80.999999" height="971.999992" fill-opacity="1"/><rect x="-81" width="972" fill="#ffffff" y="-80.999999" height="971.999992" fill-opacity="1"/><g clip-path="url(#905e5f55c6)"><path fill="#1877f2" d="M 804.550781 405.175781 C 804.550781 184.605469 625.742188 5.800781 405.175781 5.800781 C 184.605469 5.800781 5.800781 184.605469 5.800781 405.175781 C 5.800781 604.515625 151.84375 769.738281 342.773438 799.699219 L 342.773438 520.617188 L 241.367188 520.617188 L 241.367188 405.175781 L 342.773438 405.175781 L 342.773438 317.1875 C 342.773438 217.09375 402.394531 161.804688 493.621094 161.804688 C 537.316406 161.804688 583.019531 169.605469 583.019531 169.605469 L 583.019531 267.890625 L 532.660156 267.890625 C 483.050781 267.890625 467.578125 298.675781 467.578125 330.257812 L 467.578125 405.175781 L 578.339844 405.175781 L 560.636719 520.617188 L 467.578125 520.617188 L 467.578125 799.699219 C 658.503906 769.738281 804.550781 604.515625 804.550781 405.175781 " fill-opacity="1" fill-rule="nonzero"/></g><g clip-path="url(#f6d34fbd63)"><path fill="#ffffff" d="M 560.636719 520.617188 L 578.339844 405.175781 L 467.578125 405.175781 L 467.578125 330.257812 C 467.578125 298.675781 483.050781 267.890625 532.660156 267.890625 L 583.019531 267.890625 L 583.019531 169.605469 C 583.019531 169.605469 537.316406 161.804688 493.621094 161.804688 C 402.394531 161.804688 342.773438 217.09375 342.773438 317.1875 L 342.773438 405.175781 L 241.367188 405.175781 L 241.367188 520.617188 L 342.773438 520.617188 L 342.773438 799.699219 C 363.105469 802.890625 383.945312 804.550781 405.175781 804.550781 C 426.402344 804.550781 447.246094 802.890625 467.578125 799.699219 L 467.578125 520.617188 L 560.636719 520.617188 " fill-opacity="1" fill-rule="nonzero"/></g></svg>